<svg width="50" height="73" viewBox="0 0 50 73" fill="none" xmlns="http://www.w3.org/2000/svg">
<path d="M43.75 21.9219C42.5625 16.2031 40.375 11.7656 37.1875 8.60938C34.0312 5.45312 30.2344 3.875 25.7969 3.875C21.4531 3.875 18.0781 4.90625 15.6719 6.96875C13.2969 9.03125 12.1094 11.7812 12.1094 15.2188C12.1094 17.125 12.2812 18.7031 12.625 19.9531C12.9688 21.2031 13.6719 22.4219 14.7344 23.6094C15.7969 24.7656 17.3438 25.7969 19.375 26.7031C21.4062 27.5781 24.0625 28.4219 27.3438 29.2344C29.125 29.6719 30.6719 30.0781 31.9844 30.4531C33.3281 30.8281 34.7969 31.3438 36.3906 32C38.0156 32.6562 39.4062 33.3594 40.5625 34.1094C41.75 34.8594 42.9219 35.7969 44.0781 36.9219C45.2656 38.0156 46.2188 39.2344 46.9375 40.5781C47.6875 41.9219 48.2812 43.5156 48.7188 45.3594C49.1875 47.1719 49.4219 49.1562 49.4219 51.3125C49.4219 54.1875 48.8906 56.8438 47.8281 59.2812C46.7656 61.6875 45.375 63.7188 43.6562 65.375C41.9375 67.0312 39.9531 68.4375 37.7031 69.5938C35.4531 70.75 33.1719 71.5938 30.8594 72.125C28.5469 72.6562 26.25 72.9219 23.9688 72.9219C17.0312 72.9219 9.64062 71.125 1.79688 67.5312C1.95312 64.1562 2.03125 62.0781 2.03125 61.2969C2.03125 56.2031 1.60938 51.125 0.765625 46.0625C1.10938 45.8438 1.45312 45.7344 1.79688 45.7344C2.23438 45.7344 2.625 45.8438 2.96875 46.0625C3.625 50.0938 4.70312 53.6562 6.20312 56.75C7.73438 59.8438 9.48438 62.2969 11.4531 64.1094C13.4219 65.8906 15.4531 67.2344 17.5469 68.1406C19.6719 69.0156 21.8125 69.4531 23.9688 69.4531C28.875 69.4531 32.6406 68.1875 35.2656 65.6562C37.9219 63.0938 39.25 59.7188 39.25 55.5312C39.25 51.3125 38.2656 48.1406 36.2969 46.0156C34.3594 43.8594 30.6406 42.1094 25.1406 40.7656C18.2656 39.0469 12.8906 36.5156 9.01562 33.1719C5.17188 29.7969 3.25 25.3438 3.25 19.8125C3.25 16.9062 3.71875 14.3125 4.65625 12.0312C5.625 9.71875 6.85938 7.875 8.35938 6.5C9.89062 5.09375 11.6719 3.9375 13.7031 3.03125C15.7344 2.09375 17.7344 1.45312 19.7031 1.10938C21.7031 0.734375 23.7344 0.546875 25.7969 0.546875C31.9844 0.546875 38.4219 1.98438 45.1094 4.85938C44.9219 6.70312 44.8281 8.625 44.8281 10.625C44.8281 15.3125 45.2031 19.0781 45.9531 21.9219C45.5469 22.0781 45.2031 22.1562 44.9219 22.1562C44.6094 22.1562 44.2188 22.0781 43.75 21.9219Z" fill="black"/>
</svg>
